#N canvas 459 536 889 427 12;
#X obj 275 56 inlet;
#X obj 460 259 outlet;
#X obj 265 273 list;
#X obj 461 99 inlet;
#X obj 461 124 t b f;
#X obj 275 81 t b l b;
#X obj 265 323 outlet;
#X text 15 27 pdkl-filter;
#X text 12 50 list filterer;
#X text 508 232 test;
#X text 521 94 output of test;
#X text 12 100 ARGS:;
#X text 15 147 INLETS:;
#X text 18 174 input list/ output of test;
#X text 331 50 input list;
#X text 22 248 OUTLETS:;
#X text 8 274 output list/test;
#X obj 478 158 sel 1;
#X text 185 16 NOTE: test should return 1 if affirmative;
#X text 732 12 derek kwan 2017;
#X text 732 35 pdklist;
#X text 732 56 gpl v 3;
#X text 528 115 if == 1 \, add to list;
#X obj 257 208 t a a;
#X obj 257 183 pdkl-ddrip;
#X obj 265 298 pdkl-fill;
#X connect 0 0 5 0;
#X connect 2 0 25 0;
#X connect 3 0 4 0;
#X connect 4 0 24 0;
#X connect 4 1 17 0;
#X connect 5 0 24 0;
#X connect 5 1 24 1;
#X connect 5 2 25 2;
#X connect 17 0 2 0;
#X connect 23 0 2 1;
#X connect 23 1 1 0;
#X connect 24 0 23 0;
#X connect 24 1 25 1;
#X connect 25 0 6 0;
