#N canvas 533 147 1112 1223 12;
#X obj 238 119 inlet;
#X text 652 52 gpl v 3;
#X text 292 114 list;
#X text 10 149 INLETS:;
#X text 9 224 OUTLETS:;
#X text 649 16 Derek Kwan 2017;
#X text 652 34 pdklist;
#X text 25 11 pdkl-drip - output by element of var size forward;
#X obj 471 109 inlet;
#X text 526 108 elt size;
#X obj 471 134 f \$1;
#X obj 373 96 loadbang;
#X text 12 174 list/elt size;
#X text 10 85 ARGS:;
#X text 10 106 elt size;
#X obj 470 193 max 1;
#X obj 238 143 route bang;
#X obj 227 831 list store, f 29;
#X obj 208 312 until;
#X obj 226 198 t b b, f 6;
#X obj 350 257 list length;
#X obj 230 370 f;
#X obj 471 158 int;
#X obj 291 360 + 1, f 4;
#X obj 211 249 spigot 0;
#X obj 340 331 > 0;
#X msg 273 312 0;
#X obj 225 761 pack f f, f 28;
#X msg 227 794 get \$1 \$2;
#X obj 226 1035 outlet;
#X obj 472 1031 outlet;
#X text 531 1032 done;
#X text 279 1032 dripped;
#X obj 311 212 t b a a;
#X obj 352 1035 outlet;
#X text 401 1032 elt num;
#X text 9 243 elts/eltnum/donebang;
#X obj 449 619 min, f 45;
#X obj 350 281 t f f, f 34;
#X obj 447 576 -, f 7;
#X obj 443 536 f, f 22;
#X obj 228 431 * 1, f 33;
#X obj 451 500 t b f, f 7;
#X obj 488 826 t b b, f 24;
#X obj 470 217 t f f, f 40;
#X obj 449 660 moses 1, f 21;
#X obj 222 463 t f f, f 33;
#X obj 229 393 t f f f;
#X obj 356 986 f;
#X obj 490 692 t b f;
#X connect 0 0 16 0;
#X connect 8 0 10 0;
#X connect 10 0 22 0;
#X connect 11 0 10 0;
#X connect 15 0 44 0;
#X connect 16 0 19 0;
#X connect 16 1 33 0;
#X connect 17 0 29 0;
#X connect 18 0 21 0;
#X connect 19 0 24 0;
#X connect 19 1 26 0;
#X connect 20 0 38 0;
#X connect 21 0 47 0;
#X connect 22 0 15 0;
#X connect 23 0 21 1;
#X connect 24 0 18 0;
#X connect 25 0 24 1;
#X connect 26 0 21 1;
#X connect 27 0 28 0;
#X connect 28 0 17 0;
#X connect 33 0 19 0;
#X connect 33 1 17 1;
#X connect 33 2 20 0;
#X connect 37 0 45 0;
#X connect 38 0 25 0;
#X connect 38 1 40 1;
#X connect 39 0 37 0;
#X connect 40 0 39 0;
#X connect 41 0 46 0;
#X connect 42 0 40 0;
#X connect 42 1 39 1;
#X connect 43 0 30 0;
#X connect 43 1 18 1;
#X connect 44 0 41 1;
#X connect 44 1 37 1;
#X connect 45 0 43 0;
#X connect 45 1 49 0;
#X connect 46 0 27 0;
#X connect 46 1 42 0;
#X connect 47 0 41 0;
#X connect 47 1 48 1;
#X connect 47 2 23 0;
#X connect 48 0 34 0;
#X connect 49 0 48 0;
#X connect 49 1 27 1;
