#N canvas 249 228 1339 850 12;
#X obj 230 581 list;
#X obj 530 39 list length;
#X obj 520 251 clip 0 1;
#X obj 607 262 clip 0 1;
#X obj 523 143 f \$1;
#X obj 617 140 f \$2;
#X msg 524 290 set \$1;
#X msg 627 289 set \$1;
#X msg 591 437 3;
#X msg 426 378 0;
#X msg 236 352 0;
#X text 914 232 get val at idx 2 and save it;
#X text 921 251 get val at idx 1 and put it in idx 2;
#X text 920 279 now have list with val 1 at idx 2;
#X text 935 306 set saved val at idx 1;
#X obj 536 96 t b f;
#X obj 535 66 - 1;
#X obj 399 10 inlet;
#X obj 703 24 inlet;
#X text 758 29 idx1;
#X obj 813 24 inlet;
#X text 866 23 idx2;
#X text 17 109 INLETS:;
#X text 14 195 ARGTS:;
#X text 628 377 idx2;
#X text 316 346 idx1;
#X obj 226 397 t b f b;
#X obj 528 393 t l b;
#X obj 340 400 t l b;
#X obj 300 760 outlet;
#X obj 295 732 spigot 0;
#X msg 356 694 1;
#X msg 406 697 0;
#X text 454 704 close when saving idx 2;
#X text 450 725 open before last replace;
#X obj 246 169 t b l l;
#X obj 383 64 t l l;
#X text 1131 27 Derek Kwan 2017;
#X text 1135 50 pdklist;
#X text 1133 71 gpl v 3;
#X obj 320 521 t b a;
#X obj 549 629 list;
#X text 16 134 list/idx1/idx2/elt size;
#X text 16 218 idx1/idx2/elt size;
#X obj 931 25 inlet;
#X text 985 28 elt size;
#X obj 931 85 f \$3;
#X obj 931 110 moses 1;
#X msg 931 135 1;
#X obj 931 160 s \$0-pdkl-swap-es;
#X obj 697 445 r \$0-pdkl-swap-es;
#X text 17 16 pdkl-swap;
#X text 11 37 swap var sized elts at two indices;
#X obj 840 51 loadbang;
#X obj 315 656 pdkl-set!;
#X obj 533 527 pdkl-ref;
#X obj 341 471 pdkl-ref;
#X connect 0 0 54 0;
#X connect 1 0 16 0;
#X connect 2 0 6 0;
#X connect 3 0 7 0;
#X connect 4 0 2 0;
#X connect 5 0 3 0;
#X connect 6 0 9 0;
#X connect 6 0 10 0;
#X connect 7 0 8 0;
#X connect 8 0 54 1;
#X connect 8 0 55 1;
#X connect 9 0 56 1;
#X connect 10 0 26 0;
#X connect 15 0 5 0;
#X connect 15 0 4 0;
#X connect 15 1 3 2;
#X connect 15 1 2 2;
#X connect 16 0 15 0;
#X connect 17 0 36 0;
#X connect 18 0 4 1;
#X connect 20 0 5 1;
#X connect 26 0 0 0;
#X connect 26 1 54 1;
#X connect 26 2 31 0;
#X connect 26 2 41 0;
#X connect 27 0 55 0;
#X connect 27 1 8 0;
#X connect 27 1 32 0;
#X connect 28 0 56 0;
#X connect 28 1 9 0;
#X connect 30 0 29 0;
#X connect 31 0 30 1;
#X connect 32 0 30 1;
#X connect 35 0 10 0;
#X connect 35 1 28 0;
#X connect 35 2 27 0;
#X connect 36 0 35 0;
#X connect 36 1 1 0;
#X connect 36 1 0 1;
#X connect 40 0 0 0;
#X connect 40 1 54 3;
#X connect 41 0 54 3;
#X connect 44 0 46 0;
#X connect 46 0 47 0;
#X connect 47 0 48 0;
#X connect 47 1 49 0;
#X connect 48 0 49 0;
#X connect 50 0 54 2;
#X connect 50 0 55 2;
#X connect 50 0 56 2;
#X connect 53 0 46 0;
#X connect 54 0 0 1;
#X connect 54 0 30 0;
#X connect 55 0 41 1;
#X connect 56 0 40 0;
