#N canvas 766 356 811 669 12;
#X obj 330 137 loadbang;
#X msg 330 161 _;
#X obj 172 245 list split 1;
#X obj 227 273 float;
#X obj 227 297 outlet;
#X obj 172 221 pdkl-symsplit;
#X obj 175 142 inlet;
#X connect 0 0 1 0;
#X connect 1 0 5 1;
#X connect 2 1 3 0;
#X connect 3 0 4 0;
#X connect 5 0 2 0;
#X connect 6 0 5 0;
